<svg width="592" height="468" viewBox="0 0 592 468" fill="none" xmlns="http://www.w3.org/2000/svg">
<g clip-path="url(#clip0_16_108)">
<path d="M592 9.73926H236.974V178.308H592V9.73926Z" fill="#2C2F32"/>
<path d="M581.848 24.1943H247.126V164.837H581.848V24.1943Z" fill="#3B3F43"/>
<path d="M591.849 0H236.823V15.0918H591.849V0Z" fill="#F88B37"/>
<path d="M248.031 11.6716C249.575 11.6716 250.827 10.4192 250.827 8.87436C250.827 7.3295 249.575 6.07715 248.031 6.07715C246.487 6.07715 245.236 7.3295 245.236 8.87436C245.236 10.4192 246.487 11.6716 248.031 11.6716Z" fill="white"/>
<path d="M258.642 11.6716C260.186 11.6716 261.437 10.4192 261.437 8.87436C261.437 7.3295 260.186 6.07715 258.642 6.07715C257.098 6.07715 255.846 7.3295 255.846 8.87436C255.846 10.4192 257.098 11.6716 258.642 11.6716Z" fill="white"/>
<path d="M269.253 11.6716C270.797 11.6716 272.049 10.4192 272.049 8.87436C272.049 7.3295 270.797 6.07715 269.253 6.07715C267.709 6.07715 266.458 7.3295 266.458 8.87436C266.458 10.4192 267.709 11.6716 269.253 11.6716Z" fill="white"/>
<path d="M503.047 46.9524H447.397V142.08H503.047V46.9524Z" fill="#1A1C1F"/>
<path d="M438.087 46.7386H326.289V62.0628H438.087V46.7386Z" fill="#F88B37"/>
<path d="M438.087 70.4912H326.289V108.802H438.087V70.4912Z" fill="#232629"/>
<path d="M438.177 115.894H325.927V142.079H438.177V115.894Z" fill="#232629"/>
<path d="M169.383 281.274C169.393 279.346 168.997 277.437 168.219 275.673C167.441 273.908 166.299 272.328 164.869 271.036C163.438 269.744 161.75 268.769 159.917 268.175C158.083 267.58 156.145 267.381 154.229 267.588C153.623 267.657 153.022 267.768 152.431 267.92L106.132 228.209L108.898 213.287L86.0782 205.887L79.1977 229.801C78.3838 232.671 78.5165 235.727 79.5759 238.516C80.6353 241.304 82.565 243.677 85.0787 245.281L142.035 281.327C142.035 281.776 142.059 282.224 142.105 282.67C142.313 284.587 142.924 286.439 143.897 288.104C144.87 289.769 146.183 291.209 147.752 292.33C149.32 293.452 151.107 294.229 152.996 294.611C154.886 294.993 156.834 294.971 158.715 294.547C159.261 294.426 159.8 294.27 160.327 294.081C162.963 293.128 165.244 291.389 166.863 289.1C168.482 286.81 169.361 284.079 169.383 281.274Z" fill="#9F616A"/>
<path d="M54.2766 327.329H113.972C113.972 329.046 175.495 330.44 175.495 330.44C176.461 331.167 177.341 332.002 178.118 332.928C180.455 335.717 181.732 339.242 181.725 342.881V345.37C181.723 349.494 180.085 353.449 177.171 356.365C174.256 359.281 170.304 360.92 166.182 360.921H54.2766C50.1556 360.918 46.2044 359.278 43.2904 356.362C40.3764 353.447 38.7377 349.493 38.7341 345.37V342.881C38.7398 338.758 40.3792 334.806 43.2927 331.891C46.2062 328.975 50.1562 327.335 54.2766 327.329Z" fill="#2C2F32"/>
<path d="M119.211 360.304H103.047V464.813H119.211V360.304Z" fill="#2C2F32"/>
<path d="M165.217 466.113C165.217 468.07 140.723 466.87 110.507 466.87C80.2922 466.87 55.798 468.07 55.798 466.113C55.798 464.156 80.2922 448.639 110.507 448.639C140.723 448.639 165.217 464.156 165.217 466.113Z" fill="#2C2F32"/>
<path d="M150.625 451.996L165.868 451.994L173.12 412.434L150.622 412.435L150.625 451.996Z" fill="#9F616A"/>
<path d="M146.737 466.781L195.889 466.779V466.157C195.889 463.643 195.394 461.154 194.433 458.831C193.472 456.509 192.062 454.399 190.286 452.621C188.509 450.843 186.401 449.433 184.079 448.471C181.758 447.509 179.271 447.014 176.758 447.014H176.756L146.736 447.015L146.737 466.781Z" fill="#232629"/>
<path d="M173.424 427.463L203.814 359.274C206.351 353.527 206.632 347.034 204.6 341.089C202.568 335.144 198.372 330.183 192.849 327.194L126.932 291.826L96.8531 289.266L69.1071 286.742L68.9071 287.081C68.6512 287.514 62.6856 297.824 66.7181 309.13C69.7769 317.705 77.7332 324.403 90.366 329.039C119.852 339.857 153.915 349.103 167.191 352.576C167.778 352.726 168.326 352.999 168.8 353.376C169.274 353.753 169.662 354.227 169.94 354.765C170.219 355.297 170.384 355.881 170.426 356.481C170.468 357.08 170.386 357.682 170.184 358.247L141.951 421.718C141.656 422.523 141.55 423.385 141.641 424.237C141.732 425.09 142.017 425.91 142.474 426.635C142.932 427.36 143.55 427.97 144.28 428.418C145.011 428.866 145.835 429.14 146.688 429.219L167.784 430.756C167.963 430.773 168.141 430.782 168.319 430.782C169.399 430.781 170.456 430.468 171.362 429.879C172.268 429.29 172.985 428.451 173.424 427.463Z" fill="#CBCBCB"/>
<path d="M140.678 451.996L155.92 451.994L163.173 412.434L140.675 412.435L140.678 451.996Z" fill="#9F616A"/>
<path d="M136.79 466.781L185.942 466.779V466.157C185.942 463.643 185.447 461.154 184.486 458.831C183.524 456.509 182.115 454.399 180.339 452.621C178.562 450.843 176.453 449.433 174.132 448.471C171.811 447.509 169.324 447.014 166.811 447.014H166.809L136.789 447.015L136.79 466.781Z" fill="#232629"/>
<path d="M162.234 431.196L192.624 363.006C195.161 357.259 195.441 350.766 193.409 344.821C191.377 338.876 187.182 333.915 181.659 330.927L115.742 295.558L85.6626 292.998L63.9306 291.112L63.9336 290.814C63.6777 291.246 57.712 301.557 61.7446 312.862C64.8034 321.438 66.5427 328.136 79.1755 332.771C108.662 343.589 142.724 352.836 156 356.308C156.587 356.458 157.135 356.731 157.609 357.108C158.083 357.486 158.472 357.959 158.75 358.498C159.028 359.03 159.194 359.614 159.236 360.213C159.278 360.812 159.196 361.414 158.994 361.98L130.761 425.45C130.466 426.255 130.36 427.117 130.45 427.97C130.541 428.822 130.826 429.642 131.284 430.367C131.742 431.092 132.359 431.702 133.09 432.15C133.82 432.598 134.644 432.872 135.497 432.951L156.593 434.488C156.772 434.505 156.951 434.514 157.128 434.514C158.209 434.514 159.266 434.2 160.172 433.611C161.078 433.022 161.794 432.183 162.234 431.196Z" fill="#CBCBCB"/>
<path d="M104.963 292.356C106.42 291.325 127.344 302.309 131.074 293.6C113.666 250.055 125.662 231.251 114.999 206.28C113.121 201.973 110.292 198.148 106.724 195.092C103.156 192.036 98.9426 189.83 94.3999 188.638L66.735 187.241L66.5917 187.31C60.3489 190.369 55.2577 195.361 52.073 201.543C48.8883 207.726 47.7797 214.771 48.9115 221.634C49.0099 248.81 65.2602 269.538 59.5781 289.249C59.3398 290.073 59.2703 290.937 59.3737 291.789C59.4771 292.64 59.7513 293.462 60.1798 294.205C60.5953 294.924 61.1533 295.549 61.8196 296.043C62.4859 296.537 63.2463 296.889 64.0538 297.078L100.583 292.202C101.436 292.405 102.323 292.424 103.184 292.258C104.045 292.091 104.861 291.742 105.577 291.235L104.963 292.356Z" fill="#2C2F32"/>
<path d="M75.9675 176.901C92.8338 176.901 106.507 163.22 106.507 146.343C106.507 129.467 92.8338 115.786 75.9675 115.786C59.1013 115.786 45.4285 129.467 45.4285 146.343C45.4285 163.22 59.1013 176.901 75.9675 176.901Z" fill="#9F616A"/>
<path d="M66.2401 174.392C67.8627 175.102 71.1855 162.165 69.697 159.577C67.4835 155.729 67.6143 155.757 66.1449 153.211C64.6754 150.665 64.3467 147.18 66.2496 144.94C68.1525 142.7 72.556 142.997 73.4245 145.806C72.8658 140.471 78.1393 136.183 83.3629 134.978C88.5865 133.773 94.0964 134.521 99.3488 133.449C105.444 132.204 111.787 127.091 109.355 120.384C108.937 119.267 108.312 118.24 107.513 117.356C104.703 114.194 100.772 112.845 96.9293 111.539C88.9342 108.824 80.7203 106.075 72.2826 106.374C58.4187 106.867 45.3138 116.456 40.6428 129.527C40.0613 131.158 39.6108 132.833 39.2957 134.535C36.3995 150.117 45.4426 165.487 60.1303 171.421L66.2401 174.392Z" fill="#232629"/>
<path d="M226.393 223.531L229.895 244.338C229.934 244.57 229.908 244.808 229.821 245.027L202.346 313.719C202.237 313.991 202.038 314.218 201.783 314.361C201.527 314.504 201.231 314.555 200.942 314.506C200.653 314.457 200.39 314.31 200.197 314.09C200.003 313.87 199.891 313.59 199.879 313.298L198.715 285.693C198.707 285.51 198.739 285.327 198.808 285.157L223.944 223.262C224.049 223.003 224.236 222.786 224.475 222.644C224.714 222.501 224.993 222.44 225.27 222.471C225.547 222.501 225.807 222.621 226.009 222.812C226.212 223.004 226.346 223.256 226.393 223.531Z" fill="#232629"/>
<path d="M224.447 225.128L227.775 243.004L203.394 305.688L200.228 285.524L224.447 225.128Z" fill="#F88B37"/>
<path d="M117.773 313.4C118.373 315.743 197.134 318.28 197.951 317.571C198.684 316.663 199.319 315.68 199.845 314.638C200.671 313.163 201.435 311.684 201.435 311.684L200.14 286.76L122.555 278.463C122.555 278.463 119.123 299.262 118.045 308.818C117.802 310.332 117.711 311.867 117.773 313.4Z" fill="#232629"/>
<path opacity="0.1" d="M189.989 289.397L189.996 310.87L155.681 308.428L157.199 287.064L189.989 289.397Z" fill="black"/>
<path opacity="0.1" d="M145.273 293.117L145.48 293.091L143.86 302.219L124.796 300.863L125.446 291.706L145.273 293.117Z" fill="black"/>
<path opacity="0.1" d="M117.773 313.4C118.373 315.743 197.134 318.279 197.951 317.571C198.684 316.662 199.319 315.679 199.845 314.638L118.045 308.818C117.802 310.332 117.711 311.867 117.773 313.4Z" fill="black"/>
<path d="M86.1477 276.181L152.586 288.587C152.752 289.003 152.939 289.411 153.148 289.808C154.05 291.507 155.3 292.997 156.816 294.182C158.332 295.366 160.08 296.218 161.947 296.683C163.821 297.154 165.774 297.22 167.676 296.875C169.577 296.53 171.383 295.783 172.972 294.684C175.852 292.706 177.866 289.701 178.602 286.285C179.338 282.868 178.74 279.3 176.931 276.31C175.122 273.321 172.239 271.137 168.873 270.207C165.506 269.276 161.912 269.669 158.826 271.306C158.288 271.594 157.771 271.92 157.279 272.28L99.5723 252.555L96.6187 237.668L72.6823 239.253L75.1625 264.208C75.4634 267.12 76.6947 269.858 78.6735 272.015C80.6524 274.171 83.2734 275.632 86.1477 276.181Z" fill="#9F616A"/>
<path d="M71.8715 250.384L106.653 238.945L98.5395 215.635C97.4621 212.54 95.3259 209.925 92.5085 208.254C89.691 206.582 86.3736 205.961 83.1426 206.499C79.8741 207.044 76.9082 208.741 74.7803 211.283C72.6525 213.824 71.5032 217.044 71.5398 220.359L71.8715 250.384Z" fill="#2C2F32"/>
<path d="M292.51 468H0.765734C0.562649 468 0.367881 467.92 0.224278 467.776C0.0806747 467.632 0 467.437 0 467.234C0 467.031 0.0806747 466.836 0.224278 466.692C0.367881 466.548 0.562649 466.468 0.765734 466.468H292.51C292.714 466.468 292.908 466.548 293.052 466.692C293.195 466.836 293.276 467.031 293.276 467.234C293.276 467.437 293.195 467.632 293.052 467.776C292.908 467.92 292.714 468 292.51 468Z" fill="#59BCFF"/>
</g>
<defs>
<clipPath id="clip0_16_108">
<rect width="592" height="468" fill="white"/>
</clipPath>
</defs>
</svg>
