<svg width="550" height="461" viewBox="0 0 550 461" fill="none" xmlns="http://www.w3.org/2000/svg">
<path d="M207.136 226.209L319.937 129.77L320.46 131.186L208.056 227.285L207.136 226.209Z" fill="#2F2E41"/>
<path d="M329.466 151.523C338.584 151.523 345.976 144.303 345.976 135.396C345.976 126.489 338.584 119.268 329.466 119.268C320.347 119.268 312.955 126.489 312.955 135.396C312.955 144.303 320.347 151.523 329.466 151.523Z" fill="#F88B37"/>
<path d="M467.91 171.776H317.854C317.211 171.777 316.574 171.652 315.98 171.407C315.385 171.162 314.845 170.803 314.39 170.35C313.935 169.898 313.574 169.36 313.328 168.768C313.082 168.176 312.955 167.541 312.955 166.901C312.955 166.26 313.082 165.625 313.328 165.033C313.574 164.442 313.935 163.904 314.39 163.451C314.845 162.998 315.385 162.639 315.98 162.394C316.574 162.15 317.211 162.024 317.854 162.025H467.91C468.553 162.024 469.19 162.15 469.784 162.394C470.379 162.639 470.919 162.998 471.374 163.451C471.829 163.904 472.19 164.442 472.436 165.033C472.683 165.625 472.809 166.26 472.809 166.901C472.809 167.541 472.683 168.176 472.436 168.768C472.19 169.36 471.829 169.898 471.374 170.35C470.919 170.803 470.379 171.162 469.784 171.407C469.19 171.652 468.553 171.777 467.91 171.776Z" fill="#F88B37"/>
<path d="M467.915 191.279H317.849C316.551 191.279 315.306 190.766 314.388 189.851C313.47 188.937 312.955 187.697 312.955 186.404C312.955 185.111 313.47 183.87 314.388 182.956C315.306 182.042 316.551 181.528 317.849 181.528H467.915C469.213 181.528 470.458 182.042 471.376 182.956C472.294 183.87 472.809 185.111 472.809 186.404C472.809 187.697 472.294 188.937 471.376 189.851C470.458 190.766 469.213 191.279 467.915 191.279Z" fill="#F88B37"/>
<path d="M383.096 210.783H317.863C316.561 210.783 315.313 210.269 314.392 209.354C313.472 208.44 312.955 207.2 312.955 205.907C312.955 204.614 313.472 203.373 314.392 202.459C315.313 201.545 316.561 201.031 317.863 201.031H383.096C384.398 201.031 385.646 201.545 386.566 202.459C387.487 203.373 388.004 204.614 388.004 205.907C388.004 207.2 387.487 208.44 386.566 209.354C385.646 210.269 384.398 210.783 383.096 210.783Z" fill="#F88B37"/>
<path d="M405.514 268.49C412.338 268.49 417.871 262.96 417.871 256.139C417.871 249.317 412.338 243.788 405.514 243.788C398.689 243.788 393.156 249.317 393.156 256.139C393.156 262.96 398.689 268.49 405.514 268.49Z" fill="#59BCFF"/>
<path d="M509.665 283.488H396.836C396.353 283.489 395.874 283.394 395.427 283.209C394.98 283.025 394.573 282.754 394.231 282.413C393.889 282.071 393.617 281.665 393.432 281.219C393.247 280.772 393.151 280.294 393.151 279.81C393.151 279.327 393.247 278.848 393.432 278.401C393.617 277.955 393.889 277.549 394.231 277.208C394.573 276.866 394.98 276.595 395.427 276.411C395.874 276.226 396.353 276.132 396.836 276.132H509.665C510.149 276.132 510.628 276.226 511.075 276.411C511.522 276.595 511.928 276.866 512.27 277.208C512.613 277.549 512.884 277.955 513.069 278.401C513.255 278.848 513.35 279.327 513.35 279.81C513.35 280.294 513.255 280.772 513.069 281.219C512.884 281.665 512.613 282.071 512.27 282.413C511.928 282.754 511.522 283.025 511.075 283.209C510.628 283.394 510.149 283.489 509.665 283.488Z" fill="#59BCFF"/>
<path d="M424.86 298.021H396.836C395.861 298.02 394.927 297.632 394.238 296.942C393.549 296.252 393.162 295.318 393.162 294.343C393.162 293.368 393.549 292.434 394.238 291.744C394.927 291.054 395.861 290.666 396.836 290.665H424.86C425.835 290.666 426.769 291.054 427.458 291.744C428.147 292.434 428.534 293.368 428.534 294.343C428.534 295.318 428.147 296.252 427.458 296.942C426.769 297.632 425.835 298.02 424.86 298.021Z" fill="#59BCFF"/>
<path d="M366.075 392.002C372.899 392.002 378.432 386.473 378.432 379.651C378.432 372.83 372.899 367.3 366.075 367.3C359.25 367.3 353.717 372.83 353.717 379.651C353.717 386.473 359.25 392.002 366.075 392.002Z" fill="#59BCFF"/>
<path d="M470.226 407.001H357.397C356.914 407.002 356.435 406.907 355.987 406.722C355.54 406.538 355.134 406.267 354.792 405.925C354.45 405.584 354.178 405.178 353.993 404.732C353.808 404.285 353.712 403.806 353.712 403.323C353.712 402.84 353.808 402.361 353.993 401.914C354.178 401.468 354.45 401.062 354.792 400.721C355.134 400.379 355.54 400.108 355.987 399.924C356.435 399.739 356.914 399.644 357.397 399.645H470.226C470.71 399.644 471.189 399.739 471.636 399.924C472.083 400.108 472.489 400.379 472.831 400.721C473.174 401.062 473.445 401.468 473.63 401.914C473.816 402.361 473.911 402.84 473.911 403.323C473.911 403.806 473.816 404.285 473.63 404.732C473.445 405.178 473.174 405.584 472.831 405.925C472.489 406.267 472.083 406.538 471.636 406.722C471.189 406.907 470.71 407.002 470.226 407.001Z" fill="#59BCFF"/>
<path d="M425.196 421.534H357.397C356.421 421.534 355.485 421.146 354.795 420.457C354.105 419.767 353.717 418.831 353.717 417.856C353.717 416.88 354.105 415.945 354.795 415.255C355.485 414.565 356.421 414.178 357.397 414.178H425.196C426.172 414.178 427.108 414.565 427.799 415.255C428.489 415.945 428.876 416.88 428.876 417.856C428.876 418.831 428.489 419.767 427.799 420.457C427.108 421.146 426.172 421.534 425.196 421.534Z" fill="#59BCFF"/>
<path d="M406.306 436.067H357.397C356.421 436.067 355.485 435.68 354.795 434.99C354.105 434.3 353.717 433.364 353.717 432.389C353.717 431.414 354.105 430.478 354.795 429.788C355.485 429.098 356.421 428.711 357.397 428.711H406.306C407.282 428.711 408.218 429.098 408.908 429.788C409.598 430.478 409.986 431.414 409.986 432.389C409.986 433.364 409.598 434.3 408.908 434.99C408.218 435.68 407.282 436.067 406.306 436.067Z" fill="#59BCFF"/>
<path d="M110.179 134.42L136.275 162.115L197.013 184.368L204.312 170.816L157.572 145.974C157.572 145.974 136.499 123.969 123.997 119.436L110.179 134.42Z" fill="#A0616A"/>
<path d="M203.317 187.835C208.291 187.835 212.323 183.805 212.323 178.834C212.323 173.862 208.291 169.832 203.317 169.832C198.343 169.832 194.311 173.862 194.311 178.834C194.311 183.805 198.343 187.835 203.317 187.835Z" fill="#A0616A"/>
<path d="M130.429 120.976L111.777 137.436L111.689 137.459C103.017 139.671 90.4925 129.448 81.5129 120.482C78.5545 117.524 76.8304 113.552 76.6892 109.372C76.548 105.191 78.0003 101.113 80.7524 97.961C82.7983 95.6499 85.4502 93.9569 88.4083 93.0733C91.3664 92.1897 94.5129 92.1507 97.492 92.9608L112.652 97.1409L130.429 120.976Z" fill="#3F3D56"/>
<path d="M151.289 447.924L164.143 447.923L170.258 398.367L151.286 398.368L151.289 447.924Z" fill="#A0616A"/>
<path d="M148.009 443.729L151.627 443.729L165.753 437.987L173.324 443.728H173.325C177.604 443.728 181.707 445.427 184.732 448.451C187.758 451.475 189.458 455.576 189.458 459.853V460.377L148.01 460.378L148.009 443.729Z" fill="#2C2F32"/>
<path d="M94.2512 447.924L107.106 447.923L113.221 398.367L94.2489 398.368L94.2512 447.924Z" fill="#A0616A"/>
<path d="M90.9718 443.729L94.59 443.729L108.716 437.987L116.287 443.728H116.288C120.566 443.728 124.67 445.427 127.695 448.451C130.72 451.475 132.42 455.576 132.421 459.853V460.377L90.9726 460.378L90.9718 443.729Z" fill="#2C2F32"/>
<path d="M74.6504 234.467C74.6504 234.467 73.1495 252.469 76.9019 269.722C80.6544 286.975 80.6544 335.564 80.6544 335.564L88.9098 430.247L113.676 427.996L120.43 269.722L144.446 322.98L142.195 330.481L145.194 332.357C145.194 332.357 142.945 346.984 144.446 346.984C145.947 346.984 149.7 349.234 149.7 349.234L146.698 426.496L172.214 425.746L181.22 316.979L171.464 254.72L170.713 242.718L167.336 242.857L165.616 237.842L162.458 229.216L74.6504 234.467Z" fill="#232629"/>
<path d="M73.3532 238.248L73.2195 238.06C66.0759 228.064 76.8199 204.044 78.4403 200.562L71.6152 198.348L73.1521 185.29L73.8802 179.469L68.6638 174.255L68.6491 174.125L65.6471 147.871L61.2823 130.433C59.6377 123.841 59.7779 116.93 61.6884 110.41C63.5989 103.89 67.211 97.9957 72.1538 93.332L82.2429 83.824L94.5044 65.6906H114.277L121.057 78.4901C127.63 80.0086 133.462 83.7836 137.537 89.1577C141.611 94.5318 143.67 101.164 143.356 107.9L141.819 141.469L147.834 183.266L147.838 190.831L154.607 198.35L153.129 205.737L158.281 207.944L160.556 218.554C161.497 219.796 167.711 228.077 167.711 230.341C167.711 230.681 167.46 231.009 166.922 231.374C162.687 234.24 139.281 240.083 128.922 235.94C117.887 231.53 74.0231 238.145 73.5811 238.213L73.3532 238.248Z" fill="#2C2F32"/>
<path d="M235.507 460.107C235.508 460.224 235.485 460.34 235.44 460.448C235.396 460.556 235.331 460.655 235.248 460.737C235.166 460.82 235.068 460.886 234.96 460.931C234.852 460.976 234.736 461 234.619 461H24.2588C24.022 461 23.7948 460.906 23.6273 460.739C23.4598 460.571 23.3658 460.344 23.3658 460.107C23.3658 459.871 23.4598 459.644 23.6273 459.476C23.7948 459.309 24.022 459.215 24.2588 459.215H234.614C234.85 459.214 235.077 459.307 235.244 459.473C235.412 459.64 235.506 459.866 235.507 460.102V460.107Z" fill="#59BCFF"/>
<path d="M106.945 59.8369C121.408 59.8369 133.132 48.1185 133.132 33.6632C133.132 19.2079 121.408 7.4895 106.945 7.4895C92.4826 7.4895 80.7583 19.2079 80.7583 33.6632C80.7583 48.1185 92.4826 59.8369 106.945 59.8369Z" fill="#A0616A"/>
<path d="M109.454 60.2606C105.398 60.2192 101.354 59.8317 97.3642 59.1022C93.4146 58.1927 84.7004 51.4578 82.3254 47.479C80.561 44.5229 79.5019 39.9504 78.924 36.6353C78.1438 32.248 78.2941 27.7458 79.3654 23.4203C80.4366 19.0948 82.4049 15.0424 85.1427 11.5255C86.1981 10.0521 87.6322 8.8913 89.2935 8.16573C89.4404 8.11262 89.5914 8.06611 89.7438 8.02691C92.1519 7.45964 94.3353 6.18594 96.0138 4.36934C96.3397 4.00156 96.6917 3.65773 97.067 3.3405C98.95 1.83361 101.163 0.793508 103.525 0.30524C107.342 -0.610793 112.801 0.537098 119.75 3.71995C123.242 5.31908 127.117 4.87295 130.104 4.3056C130.271 4.27774 130.443 4.29419 130.602 4.35331C130.762 4.41242 130.902 4.51216 131.011 4.64258C132.244 5.861 133.893 6.56775 135.626 6.62079C136.687 6.69477 137.762 8.1928 139.059 10.1435C139.354 10.5864 139.697 11.1032 139.946 11.4185L139.996 10.8263L140.579 11.5035C141.496 12.5679 142.129 13.8469 142.419 15.2215C142.708 16.596 142.645 18.0215 142.235 19.365C141.824 20.7085 141.081 21.9265 140.073 22.9054C139.065 23.8844 137.826 24.5925 136.47 24.9638C135.395 25.2203 134.296 25.3663 133.191 25.3997C132.521 25.4425 131.829 25.4869 131.163 25.5847C129.025 25.965 127.023 26.8928 125.351 28.2776C123.68 29.6623 122.396 31.4567 121.625 33.4854C121.443 33.9543 121.156 34.375 120.785 34.7152C120.415 35.0555 119.971 35.306 119.488 35.4476C119.005 35.5892 118.496 35.618 118.001 35.5318C117.505 35.4456 117.036 35.2467 116.629 34.9505C115.953 34.3955 115.152 34.0123 114.296 33.8335C113.439 33.6546 112.552 33.6855 111.71 33.9235C110.978 34.306 110.4 34.9286 110.072 35.6867C109.676 36.5305 109.038 37.2373 108.238 37.7169C105.512 39.034 105.168 45.1715 106.002 50.3169C106.806 55.2765 108.555 58.8945 110.255 59.115C111.564 59.2845 111.712 59.3816 111.801 59.616L111.88 59.8259L111.728 60.0164C111.58 60.1863 110.713 60.2606 109.454 60.2606Z" fill="#232629"/>
<path d="M237.918 258.699C263.528 258.699 284.29 237.948 284.29 212.35C284.29 186.752 263.528 166.001 237.918 166.001C212.307 166.001 191.546 186.752 191.546 212.35C191.546 237.948 212.307 258.699 237.918 258.699Z" fill="#F88B37"/>
<path d="M233.869 230.516C233.769 230.516 233.668 230.514 233.566 230.509C232.677 230.466 231.808 230.231 231.018 229.82C230.228 229.41 229.536 228.834 228.989 228.131L221.681 218.74C220.676 217.446 220.225 215.806 220.428 214.181C220.631 212.555 221.471 211.077 222.764 210.07L223.026 209.866C224.321 208.861 225.961 208.411 227.588 208.614C229.214 208.817 230.694 209.656 231.703 210.948C232.031 211.37 232.446 211.716 232.92 211.962C233.395 212.208 233.917 212.349 234.451 212.375C234.985 212.407 235.52 212.319 236.017 212.12C236.514 211.921 236.961 211.614 237.326 211.222L252.165 195.566C253.294 194.378 254.847 193.686 256.485 193.642C258.124 193.598 259.712 194.204 260.904 195.329L261.145 195.557C262.334 196.685 263.026 198.238 263.071 199.876C263.116 201.513 262.508 203.102 261.382 204.292L238.355 228.587C237.778 229.196 237.082 229.682 236.311 230.014C235.54 230.345 234.709 230.516 233.869 230.516Z" fill="white"/>
<path d="M115.485 135.382L133.677 168.8L186.757 205.759L197.264 194.507L158.38 158.603C158.38 158.603 143.599 131.965 132.661 124.403L115.485 135.382Z" fill="#A0616A"/>
<path d="M194.262 211.01C199.236 211.01 203.268 206.98 203.268 202.009C203.268 197.037 199.236 193.007 194.262 193.007C189.288 193.007 185.256 197.037 185.256 202.009C185.256 206.98 189.288 211.01 194.262 211.01Z" fill="#A0616A"/>
<path d="M117.123 139.837L105.683 112.396L109.821 97.2306C110.644 94.2564 112.283 91.5716 114.553 89.4796C116.822 87.3876 119.632 85.9718 122.665 85.3921C126.781 84.634 131.031 85.4663 134.557 87.7208C138.082 89.9752 140.62 93.4836 141.656 97.5365C144.789 109.831 147.195 125.813 140.867 132.138L140.803 132.202L117.123 139.837Z" fill="#2C2F32"/>
<path d="M326.427 144.772C326.388 144.772 326.349 144.771 326.31 144.769C325.966 144.753 325.629 144.662 325.324 144.503C325.018 144.345 324.751 144.122 324.539 143.85L321.713 140.221C321.324 139.721 321.15 139.087 321.229 138.459C321.307 137.831 321.632 137.259 322.132 136.87L322.233 136.791C322.734 136.403 323.368 136.229 323.998 136.308C324.627 136.386 325.199 136.71 325.589 137.209C325.716 137.372 325.876 137.506 326.06 137.601C326.243 137.697 326.445 137.751 326.652 137.761C326.858 137.773 327.065 137.74 327.257 137.663C327.45 137.586 327.623 137.467 327.764 137.316L333.502 131.265C333.939 130.806 334.54 130.538 335.173 130.521C335.807 130.504 336.421 130.738 336.882 131.173L336.975 131.261C337.435 131.697 337.703 132.297 337.72 132.93C337.737 133.563 337.503 134.177 337.067 134.637L328.162 144.027C327.938 144.262 327.669 144.45 327.371 144.578C327.073 144.706 326.752 144.772 326.427 144.772Z" fill="white"/>
<path d="M515.482 412.021C520.848 415.661 526.812 419.757 528.541 426.401C528.938 427.821 529.044 429.305 528.853 430.767C528.662 432.228 528.176 433.635 527.427 434.904C526.05 437.198 523.999 439 521.998 440.737C519.621 442.8 517.225 444.828 515.38 447.404C514.536 448.584 516.488 449.709 517.324 448.54C520.744 443.764 526.426 441.059 529.435 435.933C532.994 429.872 530.619 422.683 526.208 417.776C523.456 414.714 520.005 412.375 516.619 410.078C515.417 409.262 514.289 411.211 515.482 412.021Z" fill="#E6E7E8"/>
<path d="M534.245 412.021C539.61 415.661 545.574 419.757 547.303 426.401C547.7 427.821 547.807 429.305 547.615 430.767C547.424 432.228 546.939 433.635 546.189 434.904C544.812 437.198 542.761 439 540.76 440.737C538.383 442.8 535.987 444.828 534.143 447.404C533.298 448.584 535.25 449.709 536.087 448.54C539.506 443.764 545.188 441.059 548.197 435.933C551.756 429.872 549.381 422.683 544.971 417.776C542.218 414.714 538.767 412.375 535.381 410.078C534.179 409.262 533.051 411.211 534.245 412.021Z" fill="#E6E7E8"/>
<path d="M355.651 247.111C356.844 246.301 355.716 244.352 354.514 245.168C351.128 247.465 347.677 249.804 344.924 252.866C340.514 257.773 338.139 264.962 341.698 271.023C344.707 276.149 350.389 278.854 353.808 283.63C354.645 284.799 356.597 283.674 355.752 282.494C353.908 279.918 351.512 277.89 349.135 275.827C347.134 274.09 345.083 272.288 343.706 269.994C342.956 268.725 342.471 267.318 342.28 265.857C342.088 264.395 342.195 262.911 342.592 261.492C344.321 254.847 350.285 250.751 355.651 247.111Z" fill="#E6E7E8"/>
<path d="M336.888 247.111C338.082 246.301 336.954 244.352 335.752 245.168C332.366 247.465 328.914 249.804 326.162 252.866C321.752 257.773 319.377 264.962 322.936 271.023C325.945 276.149 331.627 278.854 335.046 283.63C335.883 284.799 337.835 283.674 336.99 282.494C335.146 279.918 332.75 277.89 330.373 275.827C328.372 274.09 326.321 272.288 324.944 269.994C324.194 268.725 323.709 267.318 323.518 265.857C323.326 264.395 323.432 262.911 323.83 261.492C325.559 254.847 331.523 250.751 336.888 247.111Z" fill="#E6E7E8"/>
</svg>
